inDegrees=yes
name=IK-live
DataType=double
version=3
OpenSimVersion=4.1
endheader
time	pelvis_tilt	pelvis_list	pelvis_rotation	pelvis_tx	pelvis_ty	pelvis_tz	hip_flexion_r	hip_adduction_r	hip_rotation_r	knee_angle_r	ankle_angle_r	subtalar_angle_r	mtp_angle_r	hip_flexion_l	hip_adduction_l	hip_rotation_l	knee_angle_l	ankle_angle_l	subtalar_angle_l	mtp_angle_l	lumbar_extension	lumbar_bending	lumbar_rotation	neck_flex	neck_latbend	neck_rot	arm_flex_r	arm_add_r	arm_rot_r	elbow_flex_r	pro_sup_r	wrist_flex_r	wrist_dev_r	arm_flex_l	arm_add_l	arm_rot_l	elbow_flex_l	pro_sup_l	wrist_flex_l	wrist_dev_l
0	0.3974648803525809	15.15937279606121	-265.8068838643505	0.2341366603171506	0.04326292228651554	-1.326684523481465	-22.57117169827992	-1.591976316804377	-3.241458145969817	5.899560354604904	2.451982624139334	1.987972377786656	0	-24.74788768789517	-3.395140484746916	-11.58000132048591	9.793848132074926	-0.4439473045988533	4.250290820099795	0	-21.37711699760957	1.659277491615732	3.206407148933037	0	0	0	0.7802508464784775	-15.17650233131117	33.31133493334918	7.008797628338353	24.87424521140584	0	0.01243771201660167	5.871224231840882	-13.22979405560507	43.89879436374082	6.823481856768562	33.48015327400059	0	0.01243771201660167
5.8614256	-28.45780396479199	-0.2593619819779001	-196.2570265227863	0.2341366603171506	0.04326292228651554	-1.326684523481465	-22.57117169827992	-1.591976316804377	-3.241458145969817	5.899560354604904	2.451982624139334	1.987972377786656	0	-24.74788768789517	-3.395140484746916	-11.58000132048591	9.793848132074926	-0.4439473045988533	4.250290820099795	0	-21.37711699760957	1.659277491615732	3.206407148933037	0	0	0	0.7834806016319463	-15.1764881990515	33.3071427959085	7.064973828031748	24.88500963603657	0	0.01734322912288384	5.874164331680037	-13.22993583266376	43.8925491299517	6.881163068884872	33.48544930519403	0	0.01734322912288384
6.9736736	-3.236775203691677	31.74080235927191	-239.1332279344845	0.2341366603171506	0.04326292228651554	-1.326684523481465	-22.57117169827992	-1.591976316804377	-3.241458145969817	5.899560354604904	2.451982624139334	1.987972377786656	0	-24.74788768789517	-3.395140484746916	-11.58000132048591	9.793848132074926	-0.4439473045988533	4.250290820099795	0	-21.37711699760957	1.659277491615732	3.206407148933037	0	0	0	0.7826501035162047	-15.17649183282329	33.30822017203808	7.051102614093684	24.88225624368613	0	0.01609154810336045	5.873408313979815	-13.22989937810182	43.8941535148225	6.866946901770608	33.48409230491939	0	0.01609154810336045
7.1265804	9.247469001354954	33.04812611390593	-253.7040774813374	0.2341366603171506	0.04326292228651554	-1.326684523481465	-22.57117169827992	-1.591976316804377	-3.241458145969817	5.899560354604904	2.451982624139334	1.987972377786656	0	-24.74788768789517	-3.395140484746916	-11.58000132048591	9.793848132074926	-0.4439473045988533	4.250290820099795	0	-21.37711699760957	1.659277491615732	3.206407148933037	0	0	0	0.7834830277247671	-15.17648818874209	33.30713935953302	7.065552708520339	24.88503112788132	0	0.01735620763928452	5.874166555841586	-13.22993593609369	43.89254345882031	6.881781917982969	33.48545758841035	0	0.01735620763928452
7.2875505	11.09256956522039	31.85117434064808	-254.5858706408862	0.2341366603171506	0.04326292228651554	-1.326684523481465	-22.57117169827992	-1.591976316804377	-3.241458145969817	5.899560354604904	2.451982624139334	1.987972377786656	0	-24.74788768789517	-3.395140484746916	-11.58000132048591	9.793848132074926	-0.4439473045988533	4.250290820099795	0	-21.37711699760957	1.659277491615732	3.206407148933037	0	0	0	0.7835290115717323	-15.17648798849175	33.30708041391332	7.066211319045894	24.88517707631903	0	0.01742163707157818	5.874208439619506	-13.22993794502451	43.89245599813817	6.882453533867297	33.48553013588853	0	0.01742163707157818
7.4384663	12.63056907911064	18.82089717012377	-254.4454116193524	0.2341366603171506	0.04326292228651554	-1.326684523481465	-22.57117169827992	-1.591976316804377	-3.241458145969817	5.899560354604904	2.451982624139334	1.987972377786656	0	-24.74788768789517	-3.395140484746916	-11.58000132048591	9.793848132074926	-0.4439473045988533	4.250290820099795	0	-21.37711699760957	1.659277491615732	3.206407148933037	0	0	0	0.7782871042786745	-15.17651092351613	33.31388382054718	6.973969683801911	24.86769471624239	0	0.009451691675710147	5.869436611079468	-13.229707857245	43.90259187057823	6.787679985254314	33.47693217330434	0	0.009451691675710147
7.5993076	12.18334362455258	12.16802036448776	-256.2792040336038	0.2341366603171506	0.04326292228651554	-1.326684523481465	-22.57117169827992	-1.591976316804377	-3.241458145969817	5.899560354604904	2.451982624139334	1.987972377786656	0	-24.74788768789517	-3.395140484746916	-11.58000132048591	9.793848132074926	-0.4439473045988533	4.250290820099795	0	-21.37711699760957	1.659277491615732	3.206407148933037	0	0	0	0.7728693917512747	-15.17653462593261	33.32091406399482	6.878700360286282	24.84963841873771	0	0.001222044520512447	5.864504705023944	-13.22947007088757	43.91306511316949	6.689792126188743	33.46805100339508	0	0.001222044520512447
7.7511736	13.09089964006087	7.051624108856729	-262.1582175227824	0.2341366603171506	0.04326292228651554	-1.326684523481465	-22.57117169827992	-1.591976316804377	-3.241458145969817	5.899560354604904	2.451982624139334	1.987972377786656	0	-24.74788768789517	-3.395140484746916	-11.58000132048591	9.793848132074926	-0.4439473045988533	4.250290820099795	0	-21.37711699760957	1.659277491615732	3.206407148933037	0	0	0	0.7727888404510457	-15.17653497781604	33.32101831081997	6.87724782262957	24.84937009080003	0	0.001099436084499398	5.864431359938278	-13.22946654074293	43.91322037794905	6.688297805570648	33.46791919105628	0	0.001099436084499398
7.912146	17.03129175594081	2.828128303516548	-269.1218915556836	0.2341366603171506	0.04326292228651554	-1.326684523481465	-22.57117169827992	-1.591976316804377	-3.241458145969817	5.899560354604904	2.451982624139334	1.987972377786656	0	-24.74788768789517	-3.395140484746916	-11.58000132048591	9.793848132074926	-0.4439473045988533	4.250290820099795	0	-21.37711699760957	1.659277491615732	3.206407148933037	0	0	0	0.7773731571802276	-15.17651492121422	33.31506946918691	6.957840002750007	24.86464534382446	0	0.008060349966730357	5.868604583124751	-13.22966775171868	43.90435824327015	6.771107194221997	33.47543294159066	0	0.008060349966730357
8.064065599999999	18.04863668163512	0.4191252122011937	81.21081643504974	0.2341366603171506	0.04326292228651554	-1.326684523481465	-22.57117169827992	-1.591976316804377	-3.241458145969817	5.899560354604904	2.451982624139334	1.987972377786656	0	-24.74788768789517	-3.395140484746916	-11.58000132048591	9.793848132074926	-0.4439473045988533	4.250290820099795	0	-21.37711699760957	1.659277491615732	3.206407148933037	0	0	0	0.7867242551676382	-15.17647398799782	33.30291979451695	7.12259397530432	24.89592678298682	0	0.02233229009395967	5.877116635865233	-13.2300784004062	43.88625265746593	6.940341892095216	33.49081196189574	0	0.02233229009395967
8.2249695	17.87138121204243	-0.6359260779075301	72.59251961769996	0.2341366603171506	0.04326292228651554	-1.326684523481465	-22.57117169827992	-1.591976316804377	-3.241458145969817	5.899560354604904	2.451982624139334	1.987972377786656	0	-24.74788768789517	-3.395140484746916	-11.58000132048591	9.793848132074926	-0.4439473045988533	4.250290820099795	0	-21.37711699760957	1.659277491615732	3.206407148933037	0	0	0	0.7863593140653466	-15.17647558808141	33.30339582978949	7.115998082527171	24.89468985933792	0	0.02176571588205876	5.876784502494974	-13.23006234807685	43.88696283314601	6.933565818813055	33.49020514145196	0	0.02176571588205876
8.3757862	19.56765251403102	-3.745386191983806	61.011622467876	0.2341366603171506	0.04326292228651554	-1.326684523481465	-22.57117169827992	-1.591976316804377	-3.241458145969817	5.899560354604904	2.451982624139334	1.987972377786656	0	-24.74788768789517	-3.395140484746916	-11.58000132048591	9.793848132074926	-0.4439473045988533	4.250290820099795	0	-21.37711699760957	1.659277491615732	3.206407148933037	0	0	0	0.7866670426841968	-15.17647423792119	33.30299369800117	7.121689523640359	24.89574028746744	0	0.02224799114842846	5.877064544828445	-13.23007589314131	43.88636255874126	6.939416327569379	33.49071973503107	0	0.02224799114842846
8.538758100000001	20.33236149223239	-8.203969673911763	48.34878545753651	0.2341366603171506	0.04326292228651554	-1.326684523481465	-22.57117169827992	-1.591976316804377	-3.241458145969817	5.899560354604904	2.451982624139334	1.987972377786656	0	-24.74788768789517	-3.395140484746916	-11.58000132048591	9.793848132074926	-0.4439473045988533	4.250290820099795	0	-21.37711699760957	1.659277491615732	3.206407148933037	0	0	0	0.7866790768160755	-15.17647418307764	33.30297644025553	7.122129512353582	24.89579557797003	0	0.0222753445231131	5.877075446069123	-13.23007644336724	43.88633611024205	6.939873588357248	33.49074553612096	0	0.0222753445231131
8.699590199999999	20.95749832048225	-18.17794288224196	24.48910774525428	0.2341366603171506	0.04326292228651554	-1.326684523481465	-22.57117169827992	-1.591976316804377	-3.241458145969817	5.899560354604904	2.451982624139334	1.987972377786656	0	-24.74788768789517	-3.395140484746916	-11.58000132048591	9.793848132074926	-0.4439473045988533	4.250290820099795	0	-21.37711699760957	1.659277491615732	3.206407148933037	0	0	0	0.784914957390462	-15.17648190051173	33.30526494089259	7.091620751659479	24.88992728521075	0	0.01960250098899929	5.875469494815742	-13.22999902087213	43.88974483373158	6.908551564054285	33.48785733839999	0	0.01960250098899929
8.8615773	20.89943243996458	-19.56298017595598	21.38358455462743	0.2341366603171506	0.04326292228651554	-1.326684523481465	-22.57117169827992	-1.591976316804377	-3.241458145969817	5.899560354604904	2.451982624139334	1.987972377786656	0	-24.74788768789517	-3.395140484746916	-11.58000132048591	9.793848132074926	-0.4439473045988533	4.250290820099795	0	-21.37711699760957	1.659277491615732	3.206407148933037	0	0	0	0.7848540361175583	-15.17648216654064	33.30534361418992	7.090611391541946	24.88972787453416	0	0.01951213491835203	5.875414023999058	-13.2299963520346	43.88986186013789	6.907516195190182	33.48775890707856	0	0.01951213491835203
9.0124941	20.16638654415865	-17.29748722647365	20.6214583416698	0.2341366603171506	0.04326292228651554	-1.326684523481465	-22.57117169827992	-1.591976316804377	-3.241458145969817	5.899560354604904	2.451982624139334	1.987972377786656	0	-24.74788768789517	-3.395140484746916	-11.58000132048591	9.793848132074926	-0.4439473045988533	4.250290820099795	0	-21.37711699760957	1.659277491615732	3.206407148933037	0	0	0	0.7849484464003031	-15.17648175587176	33.30522284295177	7.092050341194534	24.89002723587797	0	0.0196465164015467	5.875500028055805	-13.23000047190057	43.88968269605608	6.908989774911591	33.48790749953162	0	0.0196465164015467
9.164411599999999	22.30051687570248	-11.42858817405178	33.31991391296553	0.2341366603171506	0.04326292228651554	-1.326684523481465	-22.57117169827992	-1.591976316804377	-3.241458145969817	5.899560354604904	2.451982624139334	1.987972377786656	0	-24.74788768789517	-3.395140484746916	-11.58000132048591	9.793848132074926	-0.4439473045988533	4.250290820099795	0	-21.37711699760957	1.659277491615732	3.206407148933037	0	0	0	0.7866215926226197	-15.17647443637438	33.30305234507567	7.120932446348063	24.89559264453885	0	0.02218134028753174	5.877023163119627	-13.23007390223289	43.88644975115263	6.938638285592209	33.49064674246962	0	0.02218134028753174
